<mxfile host="Electron" agent="Mozilla/5.0 (Windows NT 10.0; Win64; x64) AppleWebKit/537.36 (KHTML, like Gecko) draw.io/26.0.9 Chrome/128.0.6613.186 Electron/32.2.5 Safari/537.36" version="26.0.9">
  <diagram name="Page-1" id="ImJihVVvyPO_nD5mvGIb">
    <mxGraphModel dx="1571" dy="-1414" grid="1" gridSize="10" guides="1" tooltips="1" connect="1" arrows="1" fold="1" page="1" pageScale="1" pageWidth="827" pageHeight="1169" math="0" shadow="0">
      <root>
        <mxCell id="0" />
        <mxCell id="1" parent="0" />
        <mxCell id="6xH96i3o5u7C2kXrtPYS-38" style="edgeStyle=orthogonalEdgeStyle;rounded=0;orthogonalLoop=1;jettySize=auto;html=1;exitX=0.5;exitY=1;exitDx=0;exitDy=0;entryX=0.5;entryY=0;entryDx=0;entryDy=0;" edge="1" parent="1" source="6xH96i3o5u7C2kXrtPYS-26" target="6xH96i3o5u7C2kXrtPYS-33">
          <mxGeometry relative="1" as="geometry" />
        </mxCell>
        <mxCell id="6xH96i3o5u7C2kXrtPYS-26" value="Inicio" style="ellipse;whiteSpace=wrap;html=1;" vertex="1" parent="1">
          <mxGeometry x="354" y="2580" width="120" height="80" as="geometry" />
        </mxCell>
        <mxCell id="6xH96i3o5u7C2kXrtPYS-28" value="Ingresar nombre&amp;nbsp;&lt;div&gt;del autor&lt;/div&gt;" style="shape=parallelogram;perimeter=parallelogramPerimeter;whiteSpace=wrap;html=1;fixedSize=1;" vertex="1" parent="1">
          <mxGeometry x="354" y="2780" width="120" height="60" as="geometry" />
        </mxCell>
        <mxCell id="6xH96i3o5u7C2kXrtPYS-29" value="Fin" style="ellipse;whiteSpace=wrap;html=1;" vertex="1" parent="1">
          <mxGeometry x="354" y="3090" width="120" height="80" as="geometry" />
        </mxCell>
        <mxCell id="6xH96i3o5u7C2kXrtPYS-41" style="edgeStyle=orthogonalEdgeStyle;rounded=0;orthogonalLoop=1;jettySize=auto;html=1;exitX=0.5;exitY=1;exitDx=0;exitDy=0;entryX=0.5;entryY=0;entryDx=0;entryDy=0;" edge="1" parent="1" source="6xH96i3o5u7C2kXrtPYS-31" target="6xH96i3o5u7C2kXrtPYS-29">
          <mxGeometry relative="1" as="geometry" />
        </mxCell>
        <mxCell id="6xH96i3o5u7C2kXrtPYS-31" value="Confirmar el registro&lt;div&gt;exitoso&lt;/div&gt;" style="shape=parallelogram;perimeter=parallelogramPerimeter;whiteSpace=wrap;html=1;fixedSize=1;" vertex="1" parent="1">
          <mxGeometry x="349" y="3000" width="130" height="55" as="geometry" />
        </mxCell>
        <mxCell id="6xH96i3o5u7C2kXrtPYS-32" value="" style="edgeStyle=orthogonalEdgeStyle;rounded=0;orthogonalLoop=1;jettySize=auto;html=1;" edge="1" parent="1" source="6xH96i3o5u7C2kXrtPYS-33" target="6xH96i3o5u7C2kXrtPYS-28">
          <mxGeometry relative="1" as="geometry" />
        </mxCell>
        <mxCell id="6xH96i3o5u7C2kXrtPYS-33" value="Solicitar nombre de autor" style="whiteSpace=wrap;html=1;" vertex="1" parent="1">
          <mxGeometry x="354" y="2690" width="120" height="60" as="geometry" />
        </mxCell>
        <mxCell id="6xH96i3o5u7C2kXrtPYS-40" style="edgeStyle=orthogonalEdgeStyle;rounded=0;orthogonalLoop=1;jettySize=auto;html=1;exitX=0.5;exitY=1;exitDx=0;exitDy=0;exitPerimeter=0;entryX=0.5;entryY=0;entryDx=0;entryDy=0;" edge="1" parent="1" source="6xH96i3o5u7C2kXrtPYS-35" target="6xH96i3o5u7C2kXrtPYS-31">
          <mxGeometry relative="1" as="geometry" />
        </mxCell>
        <mxCell id="6xH96i3o5u7C2kXrtPYS-35" value="Guardar el&lt;div&gt;autor como&lt;/div&gt;&lt;div&gt;activo&lt;/div&gt;" style="shape=cylinder3;whiteSpace=wrap;html=1;boundedLbl=1;backgroundOutline=1;size=15;" vertex="1" parent="1">
          <mxGeometry x="381.5" y="2878" width="65" height="90" as="geometry" />
        </mxCell>
        <mxCell id="6xH96i3o5u7C2kXrtPYS-37" style="edgeStyle=orthogonalEdgeStyle;rounded=0;orthogonalLoop=1;jettySize=auto;html=1;exitX=0.5;exitY=1;exitDx=0;exitDy=0;exitPerimeter=0;entryX=0.5;entryY=0;entryDx=0;entryDy=0;" edge="1" parent="1" source="6xH96i3o5u7C2kXrtPYS-36" target="6xH96i3o5u7C2kXrtPYS-26">
          <mxGeometry relative="1" as="geometry" />
        </mxCell>
        <mxCell id="6xH96i3o5u7C2kXrtPYS-36" value="Menu Pricinpal" style="verticalLabelPosition=bottom;verticalAlign=top;html=1;shape=mxgraph.flowchart.on-page_reference;" vertex="1" parent="1">
          <mxGeometry x="384" y="2480" width="60" height="60" as="geometry" />
        </mxCell>
        <mxCell id="6xH96i3o5u7C2kXrtPYS-39" style="edgeStyle=orthogonalEdgeStyle;rounded=0;orthogonalLoop=1;jettySize=auto;html=1;exitX=0.5;exitY=1;exitDx=0;exitDy=0;entryX=0.5;entryY=0;entryDx=0;entryDy=0;entryPerimeter=0;" edge="1" parent="1" source="6xH96i3o5u7C2kXrtPYS-28" target="6xH96i3o5u7C2kXrtPYS-35">
          <mxGeometry relative="1" as="geometry" />
        </mxCell>
      </root>
    </mxGraphModel>
  </diagram>
</mxfile>
